<?xml version="1.0" encoding="utf-8"?>
<!-- Generator: Adobe Illustrator 25.4.1, SVG Export Plug-In . SVG Version: 6.00 Build 0)  -->
<svg version="1.1" xmlns="http://www.w3.org/2000/svg" xmlns:xlink="http://www.w3.org/1999/xlink" x="0px" y="0px"
	 viewBox="0 0 270.87 264.53" style="enable-background:new 0 0 270.87 264.53;" xml:space="preserve">
<style type="text/css">
	.st0{display:none;}
	.st1{display:inline;}
	.st2{fill:#EF7B08;}
	.st3{fill:#F3931B;}
	.st4{display:inline;fill:#2D213E;}
	.st5{fill:#2D213E;}
	.st6{fill:#62C4DB;}
	.st7{fill:#A1D7E1;}
	.st8{font-family:'RobotoSlab-Black';}
	.st9{font-size:72.0025px;}
	.st10{fill:#2C2340;}
	.st11{fill:#ABCE75;}
	.st12{fill:#CDDF9F;}
	.st13{fill:#2E263F;}
	.st14{fill:#C26DA9;}
	.st15{fill:#E5BDDB;}
	.st16{fill:#2D1E3E;}
	.st17{fill:#FBEA17;}
	.st18{fill:#F4EB70;}
	.st19{fill:#E7473C;}
	.st20{fill:#EA6A64;}
	.st21{fill:#3969B1;}
	.st22{fill:#5888C6;}
	.st23{fill:#A4B654;}
	.st24{fill:#C3D882;}
	.st25{fill:#774A97;}
	.st26{fill:#9168AA;}
	.st27{fill:#CFCECE;}
	.st28{fill:#D7D8D8;}
</style>
<g id="Capa_1" class="st0">
	<g class="st1">
		<circle class="st2" cx="136.04" cy="132.76" r="118.2"/>
		<path class="st3" d="M136.04,21.06c29.84,0,57.89,11.62,78.98,32.72c21.1,21.1,32.72,49.15,32.72,78.98s-11.62,57.89-32.72,78.98
			c-21.1,21.1-49.15,32.72-78.98,32.72c-29.84,0-57.89-11.62-78.98-32.72c-21.1-21.1-32.72-49.15-32.72-78.98
			s11.62-57.89,32.72-78.98C78.15,32.68,106.2,21.06,136.04,21.06 M136.04,8.06c-68.87,0-124.7,55.83-124.7,124.7
			s55.83,124.7,124.7,124.7s124.7-55.83,124.7-124.7S204.91,8.06,136.04,8.06L136.04,8.06z"/>
	</g>
	<path class="st4" d="M122.84,44.04c-0.4,0.4-0.7,10.3-0.7,22.1c0,11.7-0.1,21.3-0.2,21.3c-0.2,0-9.3-2.9-20.3-6.5
		c-16.4-5.3-20.2-6.2-21-5.1c-1.3,1.6-8,23.5-7.4,24c0.2,0.2,9,3.1,19.4,6.6c10.5,3.4,19.3,6.5,19.7,6.9c0.4,0.3-4.7,8-11.3,17.1
		c-6.5,9.1-11.9,17-11.9,17.7s0.9,1.7,1.9,2.3c1.1,0.5,2.5,1.6,3.3,2.3c2.3,2.2,14.6,10.7,15.6,10.7c0.5,0,4.7-5.3,9.3-11.8
		c4.6-6.4,10.2-14.2,12.4-17.3l4.1-5.5l12.4,17.3c6.8,9.6,12.9,17.2,13.6,17.1c2.1-0.5,20.4-14.2,20.4-15.3c0-0.5-5.4-8.4-11.9-17.5
		c-6.6-9.1-11.7-16.8-11.3-17.1c0.4-0.4,9.3-3.5,19.7-6.9c10.5-3.5,19.2-6.4,19.4-6.6c0.6-0.5-6.1-22.4-7.4-24
		c-0.8-1.1-4.6-0.2-21,5.1c-11,3.6-20.1,6.5-20.2,6.5c-0.2,0-0.4-9.8-0.5-21.8l-0.3-21.7l-12.6-0.3
		C129.14,43.54,123.24,43.74,122.84,44.04z"/>
	<path class="st4" d="M146.64,174.34c-7.7,1.9-11.5,6.7-11.5,14.3c0,3.8,0.6,5.4,3,8.2c2.4,2.7,2.7,3.5,1.5,4
		c-2.7,1-5.5,6.9-5.5,11.5c0,8.8,6.7,14.4,17.1,14.4c10.3,0,17.9-6.1,17.9-14.5c0-4.6-2.2-9.3-5.1-10.9c-2.1-1.1-2.1-1.1-0.1-3.2
		c6.3-6.9,5.3-17.1-2.2-21.6C158.14,174.34,150.94,173.24,146.64,174.34z M154.94,184.64c0.7,0.7,1.2,2.6,1.2,4.3
		c0,3.8-1.6,5.5-5.2,5.5c-2.9,0-4.8-2.3-4.8-5.9C146.14,184.44,152.04,181.74,154.94,184.64z M155.34,206.14c2.2,2,2.4,7.6,0.2,9.7
		c-3.7,3.8-10.4,0.7-10.4-4.7C145.14,205.34,151.14,202.34,155.34,206.14z"/>
	<path class="st4" d="M111.14,176.24l-8.5,1.7l-0.3,3.7l-0.3,3.8h4.5h4.6v16c0,17.7,0.6,16.2-6.5,17.2c-1.6,0.3-2,1.1-2,3.8v3.5h14
		h14v-3.5c0-2.7-0.4-3.5-2-3.8c-7.1-1.1-6.5,1.2-6.5-22.7c0-16.6-0.3-21.5-1.2-21.4C120.24,174.54,115.84,175.34,111.14,176.24z"/>
	<g class="st1">
		<path class="st5" d="M226.25,41.68C207,22.43,184.04,10.39,158.02,5.91c-10.64-1.91-34.06-1.86-44.76,0.1
			c-3.85,0.69-24.72,5.27-24.72,8.88c0,0.42,0,1.68,0.99,2.39c1.28,0.92,3.4,0.59,9.44-1.44c11-3.77,22.43-5.45,37.08-5.45
			c29.24,0,53.35,8.38,75.88,26.38c12.85,10.26,23.79,23.46,31.64,38.19c18.3,34.42,18.82,75.72,1.39,110.48
			c-17.06,33.93-50.54,59.01-87.38,65.46c-10.66,1.88-32.39,1.88-43.06,0c-49.46-8.56-89.92-49.1-98.38-98.58
			c-6.71-39.39,6.97-80.85,35.7-108.21c3.66-3.47,8.29-7.51,10.1-8.81c2.44-1.75,3.65-3.41,3.6-4.93c-0.02-0.65-0.29-1.59-1.45-2.32
			C61.03,26.07,43.5,43.57,41.6,45.62C20.29,69.15,8.55,99.57,8.55,131.29c0,26.06,6.99,49.33,21.36,71.15
			c6.91,10.57,24.11,27.67,35.38,35.19c20.95,13.93,45.39,21.29,70.7,21.29c0.04,0,0.09,0,0.13,0c25.38-0.03,49.93-7.46,70.98-21.5
			c11.01-7.44,28.43-24.77,35.18-34.98C276.1,151.05,269.51,84.94,226.25,41.68z"/>
		<path class="st5" d="M75.45,25.39c1.87,0,3.59-1.32,4.34-2.63c0.57-1.01,0.62-2.06,0.1-2.92c-1.41-2.11-3.11-1.35-5.03-0.22
			c-1.66,0.91-2.54,2.47-2.18,3.88C72.9,24.41,73.75,25.39,75.45,25.39z"/>
	</g>
</g>
<g id="Capa_2" class="st0">
	<g class="st1">
		
			<ellipse transform="matrix(0.7071 -0.7071 0.7071 0.7071 -53.2312 134.9087)" class="st6" cx="136.23" cy="131.71" rx="118.2" ry="118.2"/>
		<path class="st7" d="M136.23,20.01c29.84,0,57.89,11.62,78.98,32.72c21.1,21.1,32.72,49.15,32.72,78.98s-11.62,57.89-32.72,78.98
			c-21.1,21.1-49.15,32.72-78.98,32.72s-57.89-11.62-78.98-32.72c-21.1-21.1-32.72-49.15-32.72-78.98s11.62-57.89,32.72-78.98
			C78.35,31.63,106.4,20.01,136.23,20.01 M136.23,7.01c-68.87,0-124.7,55.83-124.7,124.7s55.83,124.7,124.7,124.7
			s124.7-55.83,124.7-124.7S205.1,7.01,136.23,7.01L136.23,7.01z"/>
	</g>
	<path class="st4" d="M123.03,42.99c-0.4,0.4-0.7,10.3-0.7,22.1c0,11.7-0.1,21.3-0.2,21.3c-0.2,0-9.3-2.9-20.3-6.5
		c-16.4-5.3-20.2-6.2-21-5.1c-1.3,1.6-8,23.5-7.4,24c0.2,0.2,9,3.1,19.4,6.6c10.5,3.4,19.3,6.5,19.7,6.9c0.4,0.3-4.7,8-11.3,17.1
		c-6.5,9.1-11.9,17-11.9,17.7s0.9,1.7,1.9,2.3c1.1,0.5,2.5,1.6,3.3,2.3c2.3,2.2,14.6,10.7,15.6,10.7c0.5,0,4.7-5.3,9.3-11.8
		c4.6-6.4,10.2-14.2,12.4-17.3l4.1-5.5l12.4,17.3c6.8,9.6,12.9,17.2,13.6,17.1c2.1-0.5,20.4-14.2,20.4-15.3c0-0.5-5.4-8.4-11.9-17.5
		c-6.6-9.1-11.7-16.8-11.3-17.1c0.4-0.4,9.3-3.5,19.7-6.9c10.5-3.5,19.2-6.4,19.4-6.6c0.6-0.5-6.1-22.4-7.4-24
		c-0.8-1.1-4.6-0.2-21,5.1c-11,3.6-20.1,6.5-20.2,6.5c-0.2,0-0.4-9.8-0.5-21.8l-0.3-21.7l-12.6-0.3
		C129.33,42.49,123.43,42.69,123.03,42.99z"/>
	<text transform="matrix(1 0 0 1 99.7575 224.9783)" class="st4 st8 st9">19</text>
	<g class="st1">
		<path class="st10" d="M231.62,52.78c-2.54,0.5-3.89-1.16-5.41-2.78c-25.19-27.02-56.35-40.44-93.23-39.86
			C72.33,11.08,20.54,59.46,15.24,119.69c-5.8,65.92,38.99,122.88,104.2,132.51c64.52,9.53,126.21-35.89,136.64-100.57
			c0.95-5.92,1.57-11.85,1.72-17.84c0.05-2.25,0.06-4.4,2.74-5.2c2.83,0.7,3.33,2.7,3.26,5.3c-1.64,59.9-42.67,110.06-100.61,122.31
			C95.65,270.5,31.42,230.88,13,164.6C-6.39,94.82,39.37,20.54,110.42,6.99c46.59-8.88,86.39,4.32,119.39,38.25
			C231.89,47.38,234.52,49.43,231.62,52.78z"/>
		<path class="st10" d="M256.53,100.63c-4.37-2.05-5.08-4.27-2.7-8.44c2.63-0.57,3.66,0.93,4.57,3.12
			C259.46,97.85,258.32,99.27,256.53,100.63z"/>
	</g>
</g>
<g id="Capa_3" class="st0">
	<g class="st1">
		
			<ellipse transform="matrix(0.7071 -0.7071 0.7071 0.7071 -53.3505 134.6205)" class="st11" cx="135.83" cy="131.71" rx="118.2" ry="118.2"/>
		<path class="st12" d="M135.83,20.01c29.84,0,57.89,11.62,78.98,32.72c21.1,21.1,32.72,49.15,32.72,78.98s-11.62,57.89-32.72,78.98
			c-21.1,21.1-49.15,32.72-78.98,32.72s-57.89-11.62-78.98-32.72c-21.1-21.1-32.72-49.15-32.72-78.98s11.62-57.89,32.72-78.98
			C77.94,31.63,105.99,20.01,135.83,20.01 M135.83,7.01c-68.87,0-124.7,55.83-124.7,124.7s55.83,124.7,124.7,124.7
			s124.7-55.83,124.7-124.7S204.7,7.01,135.83,7.01L135.83,7.01z"/>
	</g>
	<path class="st4" d="M122.63,42.99c-0.4,0.4-0.7,10.3-0.7,22.1c0,11.7-0.1,21.3-0.2,21.3c-0.2,0-9.3-2.9-20.3-6.5
		c-16.4-5.3-20.2-6.2-21-5.1c-1.3,1.6-8,23.5-7.4,24c0.2,0.2,9,3.1,19.4,6.6c10.5,3.4,19.3,6.5,19.7,6.9c0.4,0.3-4.7,8-11.3,17.1
		c-6.5,9.1-11.9,17-11.9,17.7s0.9,1.7,1.9,2.3c1.1,0.5,2.5,1.6,3.3,2.3c2.3,2.2,14.6,10.7,15.6,10.7c0.5,0,4.7-5.3,9.3-11.8
		c4.6-6.4,10.2-14.2,12.4-17.3l4.1-5.5l12.4,17.3c6.8,9.6,12.9,17.2,13.6,17.1c2.1-0.5,20.4-14.2,20.4-15.3c0-0.5-5.4-8.4-11.9-17.5
		c-6.6-9.1-11.7-16.8-11.3-17.1c0.4-0.4,9.3-3.5,19.7-6.9c10.5-3.5,19.2-6.4,19.4-6.6c0.6-0.5-6.1-22.4-7.4-24
		c-0.8-1.1-4.6-0.2-21,5.1c-11,3.6-20.1,6.5-20.2,6.5c-0.2,0-0.4-9.8-0.5-21.8l-0.3-21.7l-12.6-0.3
		C128.93,42.49,123.03,42.69,122.63,42.99z"/>
	<text transform="matrix(1 0 0 1 95.2368 224.9783)" class="st4 st8 st9">20</text>
	<g id="u7BELY.tif" class="st1">
		<g>
			<path class="st13" d="M256.56,98.59c-7.68-3.7-8.48-11.85-11.68-18.37C222.49,34.6,177.99,8.59,127.03,11.54
				C61.07,15.34,8.82,76.68,15.84,142.46c4.9,45.87,28.39,79.49,70.09,98.67c80.44,37,168.92-22.19,170.33-106.78
				c0.05-2.93,0.08-5.76,3.58-6.84c3.74,0.52,4.1,3.1,3.96,6.19c-2.36,49.04-24.34,86.5-67.39,110.2
				c-74.2,40.85-167.14-2.43-185.01-85.54C-3.47,89.24,40.83,21.39,109.69,6.7C170.3-6.24,233.02,27.41,255.43,86.16
				C257.02,90.33,257.45,94.33,256.56,98.59z"/>
			<path class="st13" d="M259.65,116.72c-5.02-2.58-5.7-6.13-1.98-10.31c2.59,0.26,3.9,1.35,4.32,4.27
				C262.39,113.44,262.58,115.51,259.65,116.72z"/>
		</g>
	</g>
</g>
<g id="Capa_4" class="st0">
	<g class="st1">
		
			<ellipse transform="matrix(0.2298 -0.9732 0.9732 0.2298 -23.4821 233.8154)" class="st14" cx="135.98" cy="131.74" rx="118.2" ry="118.2"/>
		<path class="st15" d="M135.98,20.04c29.84,0,57.89,11.62,78.98,32.72c21.1,21.1,32.72,49.15,32.72,78.98s-11.62,57.89-32.72,78.98
			c-21.1,21.1-49.15,32.72-78.98,32.72s-57.89-11.62-78.98-32.72c-21.1-21.1-32.72-49.15-32.72-78.98S35.9,73.86,56.99,52.76
			C78.09,31.66,106.14,20.04,135.98,20.04 M135.98,7.04c-68.87,0-124.7,55.83-124.7,124.7s55.83,124.7,124.7,124.7
			s124.7-55.83,124.7-124.7S204.85,7.04,135.98,7.04L135.98,7.04z"/>
	</g>
	<path class="st4" d="M122.78,43.02c-0.4,0.4-0.7,10.3-0.7,22.1c0,11.7-0.1,21.3-0.2,21.3c-0.2,0-9.3-2.9-20.3-6.5
		c-16.4-5.3-20.2-6.2-21-5.1c-1.3,1.6-8,23.5-7.4,24c0.2,0.2,9,3.1,19.4,6.6c10.5,3.4,19.3,6.5,19.7,6.9c0.4,0.3-4.7,8-11.3,17.1
		c-6.5,9.1-11.9,17-11.9,17.7s0.9,1.7,1.9,2.3c1.1,0.5,2.5,1.6,3.3,2.3c2.3,2.2,14.6,10.7,15.6,10.7c0.5,0,4.7-5.3,9.3-11.8
		c4.6-6.4,10.2-14.2,12.4-17.3l4.1-5.5l12.4,17.3c6.8,9.6,12.9,17.2,13.6,17.1c2.1-0.5,20.4-14.2,20.4-15.3c0-0.5-5.4-8.4-11.9-17.5
		c-6.6-9.1-11.7-16.8-11.3-17.1c0.4-0.4,9.3-3.5,19.7-6.9c10.5-3.5,19.2-6.4,19.4-6.6c0.6-0.5-6.1-22.4-7.4-24
		c-0.8-1.1-4.6-0.2-21,5.1c-11,3.6-20.1,6.5-20.2,6.5c-0.2,0-0.4-9.8-0.5-21.8l-0.3-21.7l-12.6-0.3
		C129.08,42.52,123.18,42.72,122.78,43.02z"/>
	<text transform="matrix(1 0 0 1 99.3963 225.0114)" class="st4 st8 st9">21</text>
	<g id="xd0mir.tif" class="st1">
		<g>
			<path class="st16" d="M15.25,131.42C15.06,193.72,62.68,246.49,124.9,252.4c39.95,3.8,73.65-9.6,101.31-38.53
				c1.03-1.08,2.02-2.2,3.02-3.32c1.43-1.6,3.08-3.99,5.25-2.04c1.92,1.72,0.31,3.67-1.22,5.46
				c-19.99,23.48-45.49,37.23-75.49,43.19c-10.26,2.04-20.67,3.28-30.98,1.81c-24.28-3.46-47.06-11.05-66.7-26.44
				c-23.82-18.68-39.8-42.57-46.87-71.99c-2.74-11.4-5.24-23.09-3.97-34.99c2.84-26.57,10.81-51.14,27.96-72.31
				C58.58,26.87,85.77,11.14,119.3,5.59c9.8-1.62,19.55-2.48,29.12-1.07c22.11,3.28,43.1,9.95,61.54,23.39
				c22.33,16.28,38.14,37.24,47.25,63.33c0.92,2.62,1.47,5.3-1.57,6.08c-2.84,0.72-2.89-2.58-3.56-4.41
				C236.28,49.57,206,22.4,160.94,12.55C96.09-1.62,29.73,42.93,17.6,108.19C16.17,115.89,15.51,123.63,15.25,131.42z"/>
			<path class="st16" d="M263.42,147.26c-2.6,11.35-4.44,22.11-9.14,32.05c-0.89,1.88-2.19,2.73-3.8,2.12
				c-1.95-0.73-1.64-2.58-0.96-4.26c3.78-9.42,6.44-19.14,7.72-29.23c0.2-1.61,0.65-3.76,2.8-3.39
				C261.68,144.83,262.98,146.34,263.42,147.26z"/>
		</g>
	</g>
</g>
<g id="Capa_5" class="st0">
	<g class="st1">
		
			<ellipse transform="matrix(0.3827 -0.9239 0.9239 0.3827 -37.3774 207.4807)" class="st17" cx="136.57" cy="131.71" rx="118.2" ry="118.2"/>
		<path class="st18" d="M136.57,20.01c29.84,0,57.89,11.62,78.98,32.72c21.1,21.1,32.72,49.15,32.72,78.98s-11.62,57.89-32.72,78.98
			c-21.1,21.1-49.15,32.72-78.98,32.72s-57.89-11.62-78.98-32.72c-21.1-21.1-32.72-49.15-32.72-78.98s11.62-57.89,32.72-78.98
			C78.68,31.63,106.73,20.01,136.57,20.01 M136.57,7.01c-68.87,0-124.7,55.83-124.7,124.7s55.83,124.7,124.7,124.7
			s124.7-55.83,124.7-124.7S205.44,7.01,136.57,7.01L136.57,7.01z"/>
	</g>
	<path class="st4" d="M123.37,42.99c-0.4,0.4-0.7,10.3-0.7,22.1c0,11.7-0.1,21.3-0.2,21.3c-0.2,0-9.3-2.9-20.3-6.5
		c-16.4-5.3-20.2-6.2-21-5.1c-1.3,1.6-8,23.5-7.4,24c0.2,0.2,9,3.1,19.4,6.6c10.5,3.4,19.3,6.5,19.7,6.9c0.4,0.3-4.7,8-11.3,17.1
		c-6.5,9.1-11.9,17-11.9,17.7s0.9,1.7,1.9,2.3c1.1,0.5,2.5,1.6,3.3,2.3c2.3,2.2,14.6,10.7,15.6,10.7c0.5,0,4.7-5.3,9.3-11.8
		c4.6-6.4,10.2-14.2,12.4-17.3l4.1-5.5l12.4,17.3c6.8,9.6,12.9,17.2,13.6,17.1c2.1-0.5,20.4-14.2,20.4-15.3c0-0.5-5.4-8.4-11.9-17.5
		c-6.6-9.1-11.7-16.8-11.3-17.1c0.4-0.4,9.3-3.5,19.7-6.9c10.5-3.5,19.2-6.4,19.4-6.6c0.6-0.5-6.1-22.4-7.4-24
		c-0.8-1.1-4.6-0.2-21,5.1c-11,3.6-20.1,6.5-20.2,6.5c-0.2,0-0.4-9.8-0.5-21.8l-0.3-21.7l-12.6-0.3
		C129.67,42.49,123.77,42.69,123.37,42.99z"/>
	<text transform="matrix(1 0 0 1 96.8112 224.9783)" class="st4 st8 st9">22</text>
	<g id="u7BELY.tif_00000153707164492793982750000016796541117403330215_" class="st1">
		<g>
			<path class="st13" d="M256.56,98.59c-7.68-3.7-8.48-11.85-11.68-18.37C222.49,34.6,177.99,8.59,127.03,11.54
				C61.07,15.34,8.82,76.68,15.84,142.46c4.9,45.87,28.39,79.49,70.09,98.67c80.44,37,168.92-22.19,170.33-106.78
				c0.05-2.93,0.08-5.76,3.58-6.84c3.74,0.52,4.1,3.1,3.96,6.19c-2.36,49.04-24.34,86.5-67.39,110.2
				c-74.2,40.85-167.14-2.43-185.01-85.54C-3.47,89.24,40.83,21.39,109.69,6.7C170.3-6.24,233.02,27.41,255.43,86.16
				C257.02,90.33,257.45,94.33,256.56,98.59z"/>
			<path class="st13" d="M259.65,116.72c-5.02-2.58-5.7-6.13-1.98-10.31c2.59,0.26,3.9,1.35,4.32,4.27
				C262.39,113.44,262.58,115.51,259.65,116.72z"/>
		</g>
	</g>
</g>
<g id="Capa_6" class="st0">
	<g class="st1">
		<circle class="st19" cx="136.48" cy="131.74" r="118.2"/>
		<path class="st20" d="M136.48,20.04c29.84,0,57.89,11.62,78.98,32.72c21.1,21.1,32.72,49.15,32.72,78.98
			c0,29.84-11.62,57.89-32.72,78.98c-21.1,21.1-49.15,32.72-78.98,32.72c-29.84,0-57.89-11.62-78.98-32.72
			c-21.1-21.1-32.72-49.15-32.72-78.98S36.4,73.86,57.5,52.76S106.64,20.04,136.48,20.04 M136.48,7.04
			c-68.87,0-124.7,55.83-124.7,124.7s55.83,124.7,124.7,124.7s124.7-55.83,124.7-124.7S205.35,7.04,136.48,7.04L136.48,7.04z"/>
	</g>
	<path class="st4" d="M241.88,60.77c-7.44-11.01-24.77-28.43-34.98-35.17C155.5-8.23,89.4-1.63,46.14,41.63
		c-19.25,19.25-31.29,42.21-35.78,68.23c-1.91,10.64-1.85,34.06,0.1,44.76c0.69,3.85,5.27,24.72,8.88,24.72c0.42,0,1.68,0,2.39-0.99
		c0.92-1.28,0.6-3.4-1.44-9.44c-3.77-11-5.45-22.44-5.45-37.08c0-29.24,8.38-53.35,26.38-75.88c10.26-12.85,23.46-23.79,38.19-31.64
		c34.41-18.3,75.72-18.82,110.48-1.39c33.93,17.06,59.01,50.54,65.46,87.38c1.88,10.66,1.88,32.39,0,43.06
		c-8.56,49.46-49.1,89.92-98.58,98.39c-39.39,6.71-80.85-6.97-108.21-35.7c-3.47-3.67-7.51-8.29-8.81-10.1
		c-1.75-2.44-3.4-3.64-4.93-3.6c-0.66,0.02-1.59,0.29-2.32,1.45c-1.96,3.05,15.52,20.58,17.57,22.48
		c23.53,21.32,53.96,33.06,85.67,33.06c26.06,0,49.33-6.99,71.15-21.36c10.57-6.91,27.67-24.1,35.19-35.38
		c13.96-20.98,21.32-45.47,21.29-70.83C263.35,106.38,255.92,81.83,241.88,60.77z"/>
	<path class="st4" d="M123.28,43.02c-0.4,0.4-0.7,10.3-0.7,22.1c0,11.7-0.1,21.3-0.2,21.3c-0.2,0-9.3-2.9-20.3-6.5
		c-16.4-5.3-20.2-6.2-21-5.1c-1.3,1.6-8,23.5-7.4,24c0.2,0.2,9,3.1,19.4,6.6c10.5,3.4,19.3,6.5,19.7,6.9c0.4,0.3-4.7,8-11.3,17.1
		c-6.5,9.1-11.9,17-11.9,17.7s0.9,1.7,1.9,2.3c1.1,0.5,2.5,1.6,3.3,2.3c2.3,2.2,14.6,10.7,15.6,10.7c0.5,0,4.7-5.3,9.3-11.8
		c4.6-6.4,10.2-14.2,12.4-17.3l4.1-5.5l12.4,17.3c6.8,9.6,12.9,17.2,13.6,17.1c2.1-0.5,20.4-14.2,20.4-15.3c0-0.5-5.4-8.4-11.9-17.5
		c-6.6-9.1-11.7-16.8-11.3-17.1c0.4-0.4,9.3-3.5,19.7-6.9c10.5-3.5,19.2-6.4,19.4-6.6c0.6-0.5-6.1-22.4-7.4-24
		c-0.8-1.1-4.6-0.2-21,5.1c-11,3.6-20.1,6.5-20.2,6.5c-0.2,0-0.4-9.8-0.5-21.8l-0.3-21.7l-12.6-0.3
		C129.58,42.52,123.68,42.72,123.28,43.02z"/>
	<text transform="matrix(1 0 0 1 97.127 225.0114)" class="st4 st8 st9">23</text>
</g>
<g id="Capa_7" class="st0">
	<g class="st1">
		
			<ellipse transform="matrix(0.3827 -0.9239 0.9239 0.3827 -37.4083 207.5009)" class="st21" cx="136.57" cy="131.74" rx="118.2" ry="118.2"/>
		<path class="st22" d="M136.57,20.04c29.84,0,57.89,11.62,78.98,32.72c21.1,21.1,32.72,49.15,32.72,78.98s-11.62,57.89-32.72,78.98
			c-21.1,21.1-49.15,32.72-78.98,32.72s-57.89-11.62-78.98-32.72c-21.1-21.1-32.72-49.15-32.72-78.98s11.62-57.89,32.72-78.98
			C78.68,31.66,106.73,20.04,136.57,20.04 M136.57,7.04c-68.87,0-124.7,55.83-124.7,124.7s55.83,124.7,124.7,124.7
			s124.7-55.83,124.7-124.7S205.44,7.04,136.57,7.04L136.57,7.04z"/>
	</g>
	<path class="st4" d="M123.37,43.02c-0.4,0.4-0.7,10.3-0.7,22.1c0,11.7-0.1,21.3-0.2,21.3c-0.2,0-9.3-2.9-20.3-6.5
		c-16.4-5.3-20.2-6.2-21-5.1c-1.3,1.6-8,23.5-7.4,24c0.2,0.2,9,3.1,19.4,6.6c10.5,3.4,19.3,6.5,19.7,6.9c0.4,0.3-4.7,8-11.3,17.1
		c-6.5,9.1-11.9,17-11.9,17.7s0.9,1.7,1.9,2.3c1.1,0.5,2.5,1.6,3.3,2.3c2.3,2.2,14.6,10.7,15.6,10.7c0.5,0,4.7-5.3,9.3-11.8
		c4.6-6.4,10.2-14.2,12.4-17.3l4.1-5.5l12.4,17.3c6.8,9.6,12.9,17.2,13.6,17.1c2.1-0.5,20.4-14.2,20.4-15.3c0-0.5-5.4-8.4-11.9-17.5
		c-6.6-9.1-11.7-16.8-11.3-17.1c0.4-0.4,9.3-3.5,19.7-6.9c10.5-3.5,19.2-6.4,19.4-6.6c0.6-0.5-6.1-22.4-7.4-24
		c-0.8-1.1-4.6-0.2-21,5.1c-11,3.6-20.1,6.5-20.2,6.5c-0.2,0-0.4-9.8-0.5-21.8l-0.3-21.7l-12.6-0.3
		C129.67,42.52,123.77,42.72,123.37,43.02z"/>
	<text transform="matrix(1 0 0 1 96.7936 225.0114)" class="st4 st8 st9">24</text>
	<g id="xd0mir.tif_00000065754736506677230480000009157512367926141834_" class="st1">
		<g>
			<path class="st16" d="M136.46,10.8C74.16,10.6,21.39,58.22,15.48,120.45c-3.8,39.95,9.6,73.65,38.53,101.31
				c1.08,1.03,2.2,2.02,3.32,3.02c1.6,1.43,3.99,3.08,2.04,5.25c-1.72,1.92-3.67,0.31-5.46-1.22
				c-23.48-19.99-37.23-45.49-43.19-75.49c-2.04-10.26-3.28-20.67-1.81-30.98c3.46-24.28,11.05-47.06,26.44-66.7
				c18.68-23.82,42.57-39.8,71.99-46.87c11.4-2.74,23.09-5.24,34.99-3.97c26.57,2.84,51.14,10.81,72.31,27.96
				c26.37,21.37,42.11,48.55,47.66,82.08c1.62,9.8,2.48,19.55,1.07,29.12c-3.28,22.11-9.95,43.1-23.39,61.54
				c-16.28,22.33-37.24,38.14-63.33,47.25c-2.62,0.92-5.3,1.47-6.08-1.57c-0.72-2.84,2.58-2.89,4.41-3.56
				c43.35-15.79,70.51-46.07,80.36-91.14c14.18-64.85-30.38-131.21-95.64-143.34C151.99,11.71,144.25,11.05,136.46,10.8z"/>
			<path class="st16" d="M120.62,258.96c-11.35-2.6-22.11-4.44-32.05-9.14c-1.88-0.89-2.73-2.19-2.12-3.8
				c0.73-1.95,2.58-1.64,4.26-0.96c9.42,3.78,19.14,6.44,29.23,7.72c1.61,0.2,3.76,0.65,3.39,2.8
				C123.05,257.22,121.54,258.52,120.62,258.96z"/>
		</g>
	</g>
</g>
<g id="Capa_8" class="st0">
	<g class="st1">
		
			<ellipse transform="matrix(0.1891 -0.982 0.982 0.1891 -19.5241 239.9102)" class="st23" cx="135.5" cy="131.78" rx="118.2" ry="118.2"/>
		<g>
			<path class="st24" d="M135.5,20.08c29.84,0,57.89,11.62,78.98,32.72c21.1,21.1,32.72,49.15,32.72,78.98s-11.62,57.89-32.72,78.98
				c-21.1,21.1-49.15,32.72-78.98,32.72s-57.89-11.62-78.98-32.72c-21.1-21.1-32.72-49.15-32.72-78.98s11.62-57.89,32.72-78.98
				C77.61,31.69,105.66,20.08,135.5,20.08 M135.5,7.08c-68.87,0-124.7,55.83-124.7,124.7s55.83,124.7,124.7,124.7
				s124.7-55.83,124.7-124.7S204.37,7.08,135.5,7.08L135.5,7.08z"/>
		</g>
	</g>
	<path class="st4" d="M122.3,43.05c-0.4,0.4-0.7,10.3-0.7,22.1c0,11.7-0.1,21.3-0.2,21.3c-0.2,0-9.3-2.9-20.3-6.5
		c-16.4-5.3-20.2-6.2-21-5.1c-1.3,1.6-8,23.5-7.4,24c0.2,0.2,9,3.1,19.4,6.6c10.5,3.4,19.3,6.5,19.7,6.9c0.4,0.3-4.7,8-11.3,17.1
		c-6.5,9.1-11.9,17-11.9,17.7s0.9,1.7,1.9,2.3c1.1,0.5,2.5,1.6,3.3,2.3c2.3,2.2,14.6,10.7,15.6,10.7c0.5,0,4.7-5.3,9.3-11.8
		c4.6-6.4,10.2-14.2,12.4-17.3l4.1-5.5l12.4,17.3c6.8,9.6,12.9,17.2,13.6,17.1c2.1-0.5,20.4-14.2,20.4-15.3c0-0.5-5.4-8.4-11.9-17.5
		c-6.6-9.1-11.7-16.8-11.3-17.1c0.4-0.4,9.3-3.5,19.7-6.9c10.5-3.5,19.2-6.4,19.4-6.6c0.6-0.5-6.1-22.4-7.4-24
		c-0.8-1.1-4.6-0.2-21,5.1c-11,3.6-20.1,6.5-20.2,6.5c-0.2,0-0.4-9.8-0.5-21.8l-0.3-21.7l-12.6-0.3
		C128.6,42.55,122.7,42.75,122.3,43.05z"/>
	<text transform="matrix(1 0 0 1 96.4432 225.0449)" class="st4 st8 st9">25</text>
	<g class="st1">
		<path class="st10" d="M12.79,120.1c2.15,1.44,1.93,3.57,1.86,5.79C13.35,162.81,25.9,194.33,52.38,220
			c43.55,42.22,114.38,44.63,160.73,5.78c50.72-42.51,59.32-114.46,20.02-167.38C194.25,6.05,118.51-5.46,65.4,32.9
			c-4.86,3.51-9.49,7.27-13.83,11.4c-1.63,1.55-3.15,3.07-5.61,1.73c-1.51-2.49-0.45-4.26,1.44-6.06
			C90.91-1.22,155.39-7.67,205.03,24.63c57.86,37.66,75.26,111.09,41.42,170.98c-35.63,63.06-120.51,83.23-180.33,42.56
			C26.89,211.51,8.08,174.03,8.74,126.7C8.78,123.72,8.38,120.41,12.79,120.1z"/>
		<path class="st10" d="M29.01,68.64c1.64,4.54,0.57,6.62-4.06,7.88c-2.26-1.46-1.93-3.24-1.02-5.44
			C24.97,68.54,26.79,68.35,29.01,68.64z"/>
	</g>
</g>
<g id="Capa_9">
	<g>
		
			<ellipse transform="matrix(0.2898 -0.9571 0.9571 0.2898 -30.1697 224.8678)" class="st25" cx="136.43" cy="132.76" rx="118.2" ry="118.2"/>
		<g>
			<path class="st26" d="M136.43,21.06c29.84,0,57.89,11.62,78.98,32.72s32.72,49.15,32.72,78.98s-11.62,57.89-32.72,78.98
				s-49.15,32.72-78.98,32.72s-57.89-11.62-78.98-32.72s-32.72-49.15-32.72-78.98s11.62-57.89,32.72-78.98S106.6,21.06,136.43,21.06
				 M136.43,8.06c-68.87,0-124.7,55.83-124.7,124.7s55.83,124.7,124.7,124.7s124.7-55.83,124.7-124.7S205.3,8.06,136.43,8.06
				L136.43,8.06z"/>
		</g>
	</g>
	<path class="st5" d="M123.23,44.04c-0.4,0.4-0.7,10.3-0.7,22.1c0,11.7-0.1,21.3-0.2,21.3c-0.2,0-9.3-2.9-20.3-6.5
		c-16.4-5.3-20.2-6.2-21-5.1c-1.3,1.6-8,23.5-7.4,24c0.2,0.2,9,3.1,19.4,6.6c10.5,3.4,19.3,6.5,19.7,6.9c0.4,0.3-4.7,8-11.3,17.1
		c-6.5,9.1-11.9,17-11.9,17.7s0.9,1.7,1.9,2.3c1.1,0.5,2.5,1.6,3.3,2.3c2.3,2.2,14.6,10.7,15.6,10.7c0.5,0,4.7-5.3,9.3-11.8
		c4.6-6.4,10.2-14.2,12.4-17.3l4.1-5.5l12.4,17.3c6.8,9.6,12.9,17.2,13.6,17.1c2.1-0.5,20.4-14.2,20.4-15.3c0-0.5-5.4-8.4-11.9-17.5
		c-6.6-9.1-11.7-16.8-11.3-17.1c0.4-0.4,9.3-3.5,19.7-6.9c10.5-3.5,19.2-6.4,19.4-6.6c0.6-0.5-6.1-22.4-7.4-24
		c-0.8-1.1-4.6-0.2-21,5.1c-11,3.6-20.1,6.5-20.2,6.5c-0.2,0-0.4-9.8-0.5-21.8l-0.3-21.7l-12.6-0.3
		C129.53,43.54,123.63,43.74,123.23,44.04z"/>
	<text transform="matrix(1 0 0 1 96.5855 226.0305)" class="st5 st8 st9">26</text>
	<g>
		<path class="st5" d="M46.14,41.63c-19.25,19.25-31.29,42.21-35.78,68.23c-1.91,10.64-1.86,34.06,0.1,44.76
			c0.69,3.85,5.27,24.72,8.88,24.72c0.42,0,1.68,0,2.39-0.99c0.92-1.28,0.59-3.4-1.44-9.44c-3.77-11-5.45-22.43-5.45-37.08
			c0-29.24,8.38-53.35,26.38-75.88c10.26-12.85,23.46-23.79,38.19-31.64c34.42-18.3,75.72-18.82,110.48-1.39
			c33.93,17.06,59.01,50.54,65.46,87.38c1.88,10.66,1.88,32.39,0,43.06c-8.56,49.46-49.1,89.92-98.58,98.38
			c-39.39,6.71-80.85-6.97-108.21-35.7c-3.47-3.66-7.51-8.29-8.81-10.1c-1.75-2.44-3.41-3.65-4.93-3.6
			c-0.65,0.02-1.59,0.29-2.32,1.45c-1.97,3.05,15.52,20.58,17.57,22.48c23.53,21.32,53.96,33.06,85.67,33.06
			c26.06,0,49.33-6.99,71.15-21.36c10.57-6.91,27.67-24.11,35.19-35.38c13.93-20.95,21.29-45.39,21.29-70.7c0-0.04,0-0.09,0-0.13
			c-0.03-25.38-7.46-49.93-21.5-70.98c-7.44-11.01-24.77-28.43-34.98-35.18C155.51-8.22,89.4-1.63,46.14,41.63z"/>
		<path class="st5" d="M29.85,192.43c0-1.87-1.32-3.59-2.63-4.34c-1.01-0.57-2.06-0.62-2.92-0.1c-2.11,1.41-1.35,3.11-0.22,5.03
			c0.91,1.66,2.47,2.54,3.88,2.18C28.87,194.98,29.85,194.13,29.85,192.43z"/>
	</g>
</g>
<g id="Capa_10" class="st0">
	<g class="st1">
		
			<ellipse transform="matrix(0.1602 -0.9871 0.9871 0.1602 -17.9896 242.3419)" class="st27" cx="133.42" cy="131.74" rx="118.2" ry="118.2"/>
		<g>
			<path class="st28" d="M133.42,20.04c29.84,0,57.89,11.62,78.98,32.72c21.1,21.1,32.72,49.15,32.72,78.98
				s-11.62,57.89-32.72,78.98c-21.1,21.1-49.15,32.72-78.98,32.72s-57.89-11.62-78.98-32.72c-21.1-21.1-32.72-49.15-32.72-78.98
				s11.62-57.89,32.72-78.98C75.54,31.66,103.59,20.04,133.42,20.04 M133.42,7.04c-68.87,0-124.7,55.83-124.7,124.7
				s55.83,124.7,124.7,124.7s124.7-55.83,124.7-124.7S202.29,7.04,133.42,7.04L133.42,7.04z"/>
		</g>
	</g>
	<path class="st4" d="M120.22,43.02c-0.4,0.4-0.7,10.3-0.7,22.1c0,11.7-0.1,21.3-0.2,21.3c-0.2,0-9.3-2.9-20.3-6.5
		c-16.4-5.3-20.2-6.2-21-5.1c-1.3,1.6-8,23.5-7.4,24c0.2,0.2,9,3.1,19.4,6.6c10.5,3.4,19.3,6.5,19.7,6.9c0.4,0.3-4.7,8-11.3,17.1
		c-6.5,9.1-11.9,17-11.9,17.7c0,0.7,0.9,1.7,1.9,2.3c1.1,0.5,2.5,1.6,3.3,2.3c2.3,2.2,14.6,10.7,15.6,10.7c0.5,0,4.7-5.3,9.3-11.8
		c4.6-6.4,10.2-14.2,12.4-17.3l4.1-5.5l12.4,17.3c6.8,9.6,12.9,17.2,13.6,17.1c2.1-0.5,20.4-14.2,20.4-15.3c0-0.5-5.4-8.4-11.9-17.5
		c-6.6-9.1-11.7-16.8-11.3-17.1c0.4-0.4,9.3-3.5,19.7-6.9c10.5-3.5,19.2-6.4,19.4-6.6c0.6-0.5-6.1-22.4-7.4-24
		c-0.8-1.1-4.6-0.2-21,5.1c-11,3.6-20.1,6.5-20.2,6.5c-0.2,0-0.4-9.8-0.5-21.8l-0.3-21.7l-12.6-0.3
		C126.52,42.52,120.62,42.72,120.22,43.02z"/>
	<text transform="matrix(1 0 0 1 94.4571 225.0114)" class="st4 st8 st9">27</text>
	<g id="xd0mir.tif_00000046324288975963014240000017590522566988659333_" class="st1">
		<g>
			<path class="st16" d="M12.51,131.42c-0.19,62.29,47.43,115.07,109.65,120.98c39.95,3.8,73.65-9.6,101.31-38.53
				c1.03-1.08,2.02-2.2,3.02-3.32c1.43-1.6,3.08-3.99,5.25-2.04c1.92,1.72,0.31,3.67-1.22,5.46
				c-19.99,23.48-45.49,37.23-75.49,43.19c-10.26,2.04-20.67,3.28-30.98,1.81c-24.28-3.46-47.06-11.05-66.7-26.44
				c-23.82-18.68-39.8-42.57-46.87-71.99c-2.74-11.4-5.24-23.09-3.97-34.99c2.84-26.57,10.81-51.14,27.96-72.31
				c21.37-26.37,48.55-42.11,82.08-47.66c9.8-1.62,19.55-2.48,29.12-1.07c22.11,3.28,43.1,9.95,61.54,23.39
				c22.33,16.28,38.14,37.24,47.25,63.33c0.92,2.62,1.47,5.3-1.57,6.08c-2.84,0.72-2.89-2.58-3.56-4.41
				c-15.79-43.35-46.07-70.51-91.14-80.36C93.34-1.62,26.99,42.93,14.86,108.19C13.43,115.89,12.77,123.63,12.51,131.42z"/>
			<path class="st16" d="M260.68,147.26c-2.6,11.35-4.44,22.11-9.14,32.05c-0.89,1.88-2.19,2.73-3.8,2.12
				c-1.95-0.73-1.64-2.58-0.96-4.26c3.78-9.42,6.44-19.14,7.72-29.23c0.2-1.61,0.65-3.76,2.8-3.39
				C258.93,144.83,260.23,146.34,260.68,147.26z"/>
		</g>
	</g>
</g>
</svg>
